<svg xmlns="http://www.w3.org/2000/svg"><style>:root svg:not(:target){display:none}</style><svg viewBox="0 0 30 30" fill="none" id="account_circle"><mask id="account_circle_0" style="mask-type:alpha" maskUnits="userSpaceOnUse" x="0" y="0" width="30" height="30"><path fill="#D9D9D9" d="M0 0h30v30h-30z"></path></mask><g mask="url(#account_circle_0)"><path d="M7.62 21.33a12.94 12.94 0 0 1 14.76 0 8.87 8.87 0 0 0 1.77-2.9c.4-1.08.6-2.22.6-3.43 0-2.7-.95-5-2.85-6.9a9.4 9.4 0 0 0-6.9-2.85c-2.71 0-5.01.95-6.9 2.85a9.4 9.4 0 0 0-2.85 6.9c0 1.2.2 2.35.6 3.43.4 1.08 1 2.05 1.77 2.9Zm7.38-4.4c-1.16 0-2.15-.4-2.97-1.21a4.04 4.04 0 0 1-1.22-2.97c0-1.16.41-2.15 1.22-2.97a4.04 4.04 0 0 1 2.97-1.22c1.16 0 2.15.41 2.97 1.22.81.82 1.22 1.8 1.22 2.97 0 1.16-.41 2.15-1.22 2.97a4.04 4.04 0 0 1-2.97 1.22Zm0 9.44a11.18 11.18 0 0 1-8.05-3.32 11.4 11.4 0 0 1 3.63-18.54 11.2 11.2 0 0 1 4.43-.88c1.58 0 3.06.29 4.43.88a11.45 11.45 0 0 1 6.05 6.06c.6 1.38.88 2.85.88 4.42a11.18 11.18 0 0 1-3.32 8.06 11.42 11.42 0 0 1-8.04 3.32Z" fill="#1C1B1F"></path></g></svg><svg viewBox="0 0 24 24" fill="none" id="alarm"><mask id="alarm_0" style="mask-type:alpha" maskUnits="userSpaceOnUse" x="0" y="0" width="24" height="24"><path fill="#D9D9D9" d="M0 0h24v24h-24z"></path></mask><g mask="url(#alarm_0)"><path d="M12.88 12.72v-3.89a.81.81 0 0 0-.23-.59.8.8 0 0 0-.6-.24.8.8 0 0 0-.83.84v4.2a.87.87 0 0 0 .3.68l2.81 2.82a.8.8 0 0 0 .6.26c.22 0 .41-.1.58-.27a.8.8 0 0 0 .27-.59.8.8 0 0 0-.27-.6l-2.63-2.62Zm-.9 9.58a9.43 9.43 0 0 1-8.6-5.68 9.1 9.1 0 0 1-.73-3.64c0-1.3.24-2.5.73-3.63a9.53 9.53 0 0 1 4.97-4.98 9.03 9.03 0 0 1 3.63-.74 9.49 9.49 0 0 1 8.6 5.71c.5 1.14.74 2.35.74 3.64a9.38 9.38 0 0 1-9.34 9.32Zm-10.6-15.6a.74.74 0 0 1-.23-.58c0-.22.1-.42.27-.6l3.2-3.1a.81.81 0 0 1 .59-.2.8.8 0 0 1 .57.24c.17.17.26.37.25.59 0 .21-.1.4-.28.58l-3.2 3.1a.8.8 0 0 1-.6.23.8.8 0 0 1-.57-.26Zm21.19 0a.8.8 0 0 1-.58.26.8.8 0 0 1-.6-.23l-3.2-3.1a.77.77 0 0 1-.02-1.17.8.8 0 0 1 .57-.25c.23 0 .43.07.6.23l3.2 3.1a.8.8 0 0 1 .27.57.78.78 0 0 1-.24.6Zm-10.6 13.62a7.1 7.1 0 0 0 5.21-2.14 7.09 7.09 0 0 0 2.14-5.2 7.1 7.1 0 0 0-2.14-5.21 7.09 7.09 0 0 0-5.2-2.14 7.1 7.1 0 0 0-5.21 2.14 7.09 7.09 0 0 0-2.14 5.2 7.1 7.1 0 0 0 2.14 5.21 7.09 7.09 0 0 0 5.2 2.14Z" fill="#1C1B1F"></path></g></svg><svg viewBox="0 0 24 24" fill="none" id="alarm_on"><mask id="alarm_on_0" style="mask-type:alpha" maskUnits="userSpaceOnUse" x="0" y="0" width="24" height="24"><path fill="#D9D9D9" d="M0 0h24v24h-24z"></path></mask><g mask="url(#alarm_on_0)"><path d="m10.87 14.12-1.76-1.77a.8.8 0 0 0-.6-.23.9.9 0 0 0-.6.25.84.84 0 0 0-.24.6c0 .22.08.42.24.59l2.26 2.24a.97.97 0 0 0 1.4 0l4.4-4.4a.83.83 0 0 0 0-1.2.83.83 0 0 0-.59-.24.84.84 0 0 0-.6.24l-3.91 3.92Zm1.1 8.18a9.43 9.43 0 0 1-8.6-5.68 9.1 9.1 0 0 1-.72-3.64c0-1.3.24-2.5.73-3.63a9.53 9.53 0 0 1 4.97-4.98 9.03 9.03 0 0 1 3.63-.74 9.49 9.49 0 0 1 8.6 5.71c.5 1.14.74 2.35.74 3.64a9.38 9.38 0 0 1-9.34 9.32Zm-10.59-15.6a.74.74 0 0 1-.23-.58c0-.22.1-.42.27-.6l3.2-3.1a.81.81 0 0 1 .59-.2.8.8 0 0 1 .57.24c.17.17.26.37.25.59 0 .21-.1.4-.28.58l-3.2 3.1a.8.8 0 0 1-.6.23.8.8 0 0 1-.57-.26Zm21.19 0a.8.8 0 0 1-.58.26.8.8 0 0 1-.6-.23l-3.2-3.1a.77.77 0 0 1-.02-1.17.8.8 0 0 1 .57-.25c.23 0 .43.07.6.23l3.2 3.1a.8.8 0 0 1 .27.57.78.78 0 0 1-.24.6Zm-10.6 13.62a7.1 7.1 0 0 0 5.21-2.14 7.09 7.09 0 0 0 2.14-5.2 7.1 7.1 0 0 0-2.14-5.21 7.09 7.09 0 0 0-5.2-2.14 7.1 7.1 0 0 0-5.21 2.14 7.09 7.09 0 0 0-2.14 5.2 7.1 7.1 0 0 0 2.14 5.21 7.09 7.09 0 0 0 5.2 2.14Z" fill="#1C1B1F"></path></g></svg><svg viewBox="0 0 40 40" fill="none" id="arrow_upward"><mask id="arrow_upward_0" style="mask-type:alpha" maskUnits="userSpaceOnUse" x="0" y="0" width="40" height="40"><path fill="#D9D9D9" d="M0 0h40v40h-40z"></path></mask><g mask="url(#arrow_upward_0)"><path d="m18.16 13.03-8.26 8.27a1.82 1.82 0 0 1-2.61.01c-.37-.37-.55-.8-.54-1.3 0-.51.18-.95.55-1.32l11.39-11.39c.19-.18.4-.32.62-.42a1.78 1.78 0 0 1 2 .42l11.41 11.41a1.83 1.83 0 0 1-1.3 3.15c-.5 0-.94-.18-1.3-.55l-8.28-8.28v19.13c0 .52-.18.95-.53 1.3-.36.36-.8.53-1.31.53-.52 0-.95-.17-1.3-.53a1.78 1.78 0 0 1-.54-1.3v-19.13Z" fill="#1C1B1F"></path></g></svg><svg viewBox="0 0 25 25" fill="none" id="basket_empty"><mask id="basket_empty_0" style="mask-type:alpha" maskUnits="userSpaceOnUse" x="0" y="0" width="25" height="25"><path fill="#D9D9D9" d="M0 0h25v25h-25z"></path></mask><g mask="url(#basket_empty_0)"><path d="M5.2 22.92a2 2 0 0 1-1.46-.62 2 2 0 0 1-.62-1.47v-12.5a2 2 0 0 1 .62-1.47 2 2 0 0 1 1.47-.61h2.08c0-1.44.5-2.67 1.53-3.69a5.02 5.02 0 0 1 3.68-1.52c1.44 0 2.67.5 3.68 1.52a5.02 5.02 0 0 1 1.53 3.69h2.08a2 2 0 0 1 1.47.61 2 2 0 0 1 .61 1.47v12.5a2 2 0 0 1-.6 1.47 2 2 0 0 1-1.48.62h-14.58Zm0-2.09h14.6v-12.5h-14.6v12.5Zm4.17-14.58h6.26c0-.87-.3-1.6-.92-2.21a2.99 2.99 0 0 0-2.21-.92c-.87 0-1.6.3-2.21.92-.61.6-.91 1.34-.91 2.21Zm3.1 8.33c1.29 0 2.45-.42 3.5-1.27 1.04-.85 1.55-1.8 1.53-2.87 0-.3-.1-.54-.29-.75a.95.95 0 0 0-.73-.32 1 1 0 0 0-.65.24c-.19.16-.33.39-.41.7a3.06 3.06 0 0 1-4.78 1.59c-.57-.4-.94-.93-1.1-1.59a1.37 1.37 0 0 0-.4-.71.93.93 0 0 0-.62-.23c-.3 0-.55.1-.75.32-.2.2-.3.46-.3.75 0 1.06.52 2.02 1.54 2.87a5.28 5.28 0 0 0 3.46 1.27Z" fill="#1C1B1F"></path></g></svg><svg viewBox="0 0 25 25" fill="none" id="basket_full"><mask id="basket_full_0" style="mask-type:alpha" maskUnits="userSpaceOnUse" x="0" y="0" width="25" height="25"><path fill="#D9D9D9" d="M0 0h25v25h-25z"></path></mask><g mask="url(#basket_full_0)"><path d="M5.2 22.92a2 2 0 0 1-1.46-.62 2 2 0 0 1-.62-1.47v-12.5a2 2 0 0 1 .62-1.47 2 2 0 0 1 1.47-.61h2.08c0-1.44.5-2.67 1.53-3.69a5.02 5.02 0 0 1 3.68-1.52c1.44 0 2.67.5 3.68 1.52a5.02 5.02 0 0 1 1.53 3.69h2.08a2 2 0 0 1 1.47.61 2 2 0 0 1 .61 1.47v12.5a2 2 0 0 1-.6 1.47 2 2 0 0 1-1.48.62h-14.58Zm4.17-16.67h6.26c0-.87-.3-1.6-.92-2.21a2.99 2.99 0 0 0-2.21-.92c-.87 0-1.6.3-2.21.92-.61.6-.91 1.34-.91 2.21Zm3.1 8.33c1.29 0 2.45-.42 3.5-1.27 1.04-.85 1.55-1.8 1.53-2.87 0-.3-.1-.54-.29-.75a.95.95 0 0 0-.73-.32 1 1 0 0 0-.65.24c-.19.16-.33.39-.41.7a3.06 3.06 0 0 1-4.78 1.59c-.57-.4-.94-.93-1.1-1.59a1.37 1.37 0 0 0-.4-.71.93.93 0 0 0-.62-.23c-.3 0-.55.1-.75.32-.2.2-.3.46-.3.75 0 1.06.52 2.02 1.54 2.87a5.28 5.28 0 0 0 3.46 1.27Z" fill="#1C1B1F"></path></g></svg><svg viewBox="0 0 24 24" fill="none" id="close"><mask id="close_0" style="mask-type:alpha" maskUnits="userSpaceOnUse" x="0" y="0" width="24" height="24"><path fill="#D9D9D9" d="M0 0h24v24h-24z"></path></mask><g mask="url(#close_0)"><path d="m12 13.71-5.99 5.99c-.22.22-.5.34-.85.34s-.64-.12-.86-.34c-.22-.22-.34-.5-.34-.86 0-.34.12-.63.34-.85l5.99-5.99-5.99-5.99c-.22-.22-.34-.5-.34-.85s.12-.64.34-.86c.22-.22.5-.34.86-.34.34 0 .63.12.85.34l5.99 5.99 5.99-5.99c.22-.22.5-.34.85-.34s.64.12.86.34c.22.22.34.5.34.86 0 .34-.12.63-.34.85l-5.99 5.99 5.99 5.99c.22.22.34.5.34.85s-.12.64-.34.86c-.22.22-.5.34-.86.34-.34 0-.63-.12-.85-.34l-5.99-5.99Z" fill="#1C1B1F"></path></g></svg><svg viewBox="0 0 25 25" fill="none" id="double_arrow_left"><mask id="double_arrow_left_0" style="mask-type:alpha" maskUnits="userSpaceOnUse" x="0" y="0" width="25" height="25"><path fill="#D9D9D9" d="M0 0h25v25h-25z"></path></mask><g mask="url(#double_arrow_left_0)"><path d="m8.01 12.47 4.45 4.44c.2.2.3.44.3.72a1.04 1.04 0 0 1-1.03 1.03.98.98 0 0 1-.72-.3l-5.15-5.15c-.1-.1-.19-.22-.24-.35a.97.97 0 0 1 0-.78.96.96 0 0 1 .24-.34l5.15-5.15a1.02 1.02 0 0 1 1.45 0 1.01 1.01 0 0 1 .01 1.45l-4.46 4.43Zm6.74 0 4.43 4.44c.2.2.3.44.3.72a1.04 1.04 0 0 1-1.03 1.03.98.98 0 0 1-.71-.3l-5.16-5.15c-.1-.1-.19-.22-.24-.35a.97.97 0 0 1 0-.78.96.96 0 0 1 .24-.34l5.16-5.15c.2-.2.44-.3.72-.3.28 0 .52.1.72.3a1.01 1.01 0 0 1 .01 1.45l-4.44 4.43Z" fill="#1C1B1F"></path></g></svg><svg viewBox="0 0 25 25" fill="none" id="favorite_off"><mask id="favorite_off_0" style="mask-type:alpha" maskUnits="userSpaceOnUse" x="0" y="0" width="25" height="25"><path fill="#D9D9D9" d="M0 0h25v25h-25z"></path></mask><g mask="url(#favorite_off_0)"><path d="M12.49 21.68c-.26 0-.51-.05-.76-.13a1.74 1.74 0 0 1-.66-.43l-1.39-1.3c-2.14-1.96-4-3.87-5.59-5.71a8.86 8.86 0 0 1-2.37-5.85 5.72 5.72 0 0 1 5.82-5.88c.87 0 1.74.2 2.6.6a6.3 6.3 0 0 1 2.35 1.99 7.64 7.64 0 0 1 2.4-2c.8-.4 1.65-.6 2.54-.6 1.67 0 3.06.57 4.19 1.7a5.7 5.7 0 0 1 1.68 4.19c0 2.05-.8 4-2.4 5.85a74.05 74.05 0 0 1-5.6 5.73l-1.4 1.29c-.19.2-.4.33-.65.42-.25.09-.5.13-.76.13Zm-.76-14.4a5.67 5.67 0 0 0-1.8-2.03 4.13 4.13 0 0 0-2.39-.8c-1.1 0-2 .35-2.7 1.06a3.76 3.76 0 0 0-1.06 2.76 6 6 0 0 0 1 3.1 21.22 21.22 0 0 0 2.37 3.17 37.05 37.05 0 0 0 2.87 2.87c1 .88 1.82 1.62 2.47 2.22l2.46-2.23c1-.9 1.96-1.85 2.88-2.88a22.42 22.42 0 0 0 2.4-3.17 5.9 5.9 0 0 0 1-3.1 3.7 3.7 0 0 0-1.07-2.74 3.7 3.7 0 0 0-2.72-1.07c-.84 0-1.65.27-2.41.8a5.88 5.88 0 0 0-1.83 2.03.86.86 0 0 1-.33.35.85.85 0 0 1-.42.1.83.83 0 0 1-.41-.1.76.76 0 0 1-.3-.35Z" fill="#1C1B1F"></path></g></svg><svg viewBox="0 0 25 25" fill="none" id="favorite_on"><mask id="favorite_on_0" style="mask-type:alpha" maskUnits="userSpaceOnUse" x="0" y="0" width="25" height="25"><path fill="#D9D9D9" d="M0 0h25v25h-25z"></path></mask><g mask="url(#favorite_on_0)"><path d="M12.49 21.68a2.2 2.2 0 0 1-.76-.14 1.76 1.76 0 0 1-.65-.41l-1.4-1.3a70.4 70.4 0 0 1-5.59-5.72 8.86 8.86 0 0 1-2.37-5.85 5.72 5.72 0 0 1 5.82-5.88c.87 0 1.74.2 2.6.6a6.3 6.3 0 0 1 2.35 1.99 7.64 7.64 0 0 1 2.4-2c.8-.4 1.65-.6 2.54-.6 1.67 0 3.06.57 4.18 1.7a5.69 5.69 0 0 1 1.69 4.19c0 2.05-.8 4-2.4 5.85a74.05 74.05 0 0 1-5.6 5.73l-1.4 1.29c-.18.19-.4.33-.65.41a2 2 0 0 1-.76.14Z" fill="#1C1B1F"></path></g></svg><svg viewBox="0 0 30 30" fill="none" id="login"><mask id="login_0" style="mask-type:alpha" maskUnits="userSpaceOnUse" x="0" y="0" width="30" height="30"><path fill="#D9D9D9" d="M0 0h30v30h-30z"></path></mask><g mask="url(#login_0)"><path d="M15.8 24.87a.79.79 0 0 1-.81-.8.8.8 0 0 1 .81-.82h7.07c.1 0 .18-.04.26-.12a.37.37 0 0 0 .12-.26v-15.74c0-.1-.04-.18-.12-.26a.37.37 0 0 0-.26-.12h-7.07a.79.79 0 0 1-.81-.8.8.8 0 0 1 .81-.83h7.07c.56 0 1.03.2 1.42.59.4.39.58.86.58 1.42v15.74c0 .56-.19 1.03-.58 1.42-.39.4-.86.58-1.42.58h-7.07Zm-1.04-9.06h-8.82a.79.79 0 0 1-.82-.8.8.8 0 0 1 .82-.82h8.82l-1.81-1.81a.84.84 0 0 1-.27-.6c0-.21.09-.4.27-.58a.8.8 0 0 1 .58-.25c.2 0 .4.1.57.27l3.08 3.08c.2.2.31.43.31.7 0 .26-.1.5-.3.7l-3.1 3.08a.75.75 0 0 1-.55.25c-.2 0-.4-.1-.58-.27a.82.82 0 0 1-.26-.57c0-.21.09-.4.27-.59l1.79-1.79Z" fill="#1C1B1F"></path></g></svg><svg viewBox="0 0 30 30" fill="none" id="logout"><mask id="logout_0" style="mask-type:alpha" maskUnits="userSpaceOnUse" x="0" y="0" width="30" height="30"><path fill="#D9D9D9" d="M0 0h30v30h-30z"></path></mask><g mask="url(#logout_0)"><path d="M7.13 24.87c-.56 0-1.03-.19-1.42-.58a1.94 1.94 0 0 1-.58-1.42v-15.74c0-.56.19-1.03.58-1.42.39-.4.86-.58 1.42-.58h7.07a.79.79 0 0 1 .81.8.8.8 0 0 1-.81.82h-7.07c-.1 0-.18.04-.26.12a.37.37 0 0 0-.12.26v15.74c0 .1.04.18.12.26.08.08.17.12.26.12h7.07a.79.79 0 0 1 .81.8.8.8 0 0 1-.81.82h-7.07Zm14.61-9.06h-8.8a.79.79 0 0 1-.82-.8.8.8 0 0 1 .81-.82h8.81l-1.81-1.81a.83.83 0 0 1-.27-.6c0-.21.09-.4.27-.58a.81.81 0 0 1 .58-.25c.2 0 .4.1.57.27l3.09 3.08a.97.97 0 0 1 0 1.4l-3.1 3.08a.75.75 0 0 1-.54.25c-.2 0-.4-.1-.58-.27a.82.82 0 0 1-.27-.57c0-.21.09-.4.27-.59l1.79-1.79Z" fill="#1C1B1F"></path></g></svg><svg viewBox="0 0 48 48" fill="none" id="navigate_next"><mask id="navigate_next_0" style="mask-type:alpha" maskUnits="userSpaceOnUse" x="0" y="0" width="48" height="48"><path fill="#D9D9D9" d="M0 0h48v48h-48z"></path></mask><g mask="url(#navigate_next_0)"><path d="m26.5 23.95-8.85-8.85c-.3-.3-.44-.65-.43-1.05.02-.4.18-.75.48-1.05.3-.3.66-.45 1.07-.45.42 0 .78.15 1.08.45l9.9 9.9c.17.17.28.33.35.5.07.17.1.35.1.55 0 .2-.03.38-.1.55-.07.17-.18.33-.35.5l-9.95 9.95c-.3.3-.65.44-1.05.42a1.5 1.5 0 0 1-1.05-.47c-.3-.3-.45-.66-.45-1.08 0-.41.15-.77.45-1.07l8.8-8.8Z" fill="#1C1B1F"></path></g></svg><svg viewBox="0 0 35 35" fill="none" id="shopping_cart"><mask id="shopping_cart_0" style="mask-type:alpha" maskUnits="userSpaceOnUse" x="0" y="0" width="35" height="35"><path fill="#D9D9D9" d="M0 0h35v35h-35z"></path></mask><g mask="url(#shopping_cart_0)"><path d="M9.84 30.86c-.63 0-1.16-.23-1.6-.67a2.2 2.2 0 0 1-.65-1.6c0-.63.22-1.17.66-1.6a2.2 2.2 0 0 1 1.6-.66c.64 0 1.17.22 1.6.67.44.44.66.97.66 1.6 0 .63-.22 1.17-.66 1.6a2.2 2.2 0 0 1-1.6.66Zm15.3 0c-.63 0-1.16-.23-1.6-.67a2.2 2.2 0 0 1-.65-1.6c0-.63.22-1.17.66-1.6a2.2 2.2 0 0 1 1.6-.66c.64 0 1.17.22 1.6.67.44.44.66.97.66 1.6 0 .63-.22 1.17-.66 1.6a2.2 2.2 0 0 1-1.6.66Zm-16.11-21.6 3.22 7.45h10.7a.4.4 0 0 0 .23-.06c.07-.05.12-.1.17-.18l2.9-6.82c.05-.1.05-.2 0-.27-.04-.08-.12-.12-.23-.12h-17Zm-.8-1.9h19.52c.38 0 .66.14.83.42.17.28.19.57.06.88l-3.56 8.53c-.18.43-.45.77-.82 1.03-.37.26-.8.39-1.26.39h-11.44l-1.62 2.79a.32.32 0 0 0 0 .36c.07.13.17.2.31.2h16.21a.92.92 0 0 1 .95.94.93.93 0 0 1-.95.96h-16.17c-.93 0-1.6-.38-2.03-1.14a2.11 2.11 0 0 1 .04-2.27l2-3.45-4.83-11.24h-2.04a.92.92 0 0 1-.95-.94.93.93 0 0 1 .95-.96h2.52c.25 0 .46.07.64.2s.32.3.44.52l1.2 2.78Z" fill="#1C1B1F"></path></g></svg><svg viewBox="0 0 24 24" fill="none" id="view_list"><mask id="view_list_0" style="mask-type:alpha" maskUnits="userSpaceOnUse" x="0" y="0" width="24" height="24"><path fill="#D9D9D9" d="M0 0h24v24h-24z"></path></mask><g mask="url(#view_list_0)"><path d="M3.25 8.4a.82.82 0 0 1-.61-.24.83.83 0 0 1-.24-.61v-1.9c0-.24.08-.44.24-.6a.82.82 0 0 1 .61-.25h2.5a.82.82 0 0 1 .85.85v1.9a.82.82 0 0 1-.85.85h-2.5Zm5.97 0a.79.79 0 0 1-.58-.24.84.84 0 0 1-.24-.61v-1.9c0-.24.08-.44.24-.6a.79.79 0 0 1 .58-.25h11.53a.82.82 0 0 1 .85.85v1.9a.82.82 0 0 1-.85.85h-11.53Zm0 5.4a.79.79 0 0 1-.58-.24.84.84 0 0 1-.24-.61v-1.9c0-.24.08-.44.24-.6a.79.79 0 0 1 .58-.25h11.53a.82.82 0 0 1 .85.85v1.9a.82.82 0 0 1-.85.85h-11.53Zm0 5.4a.79.79 0 0 1-.58-.24.84.84 0 0 1-.24-.61v-1.9c0-.24.08-.44.24-.6a.79.79 0 0 1 .58-.25h11.53a.82.82 0 0 1 .85.85v1.9a.82.82 0 0 1-.85.85h-11.53Zm-5.97 0a.82.82 0 0 1-.61-.24.83.83 0 0 1-.24-.61v-1.9c0-.24.08-.44.24-.6a.82.82 0 0 1 .61-.25h2.5a.82.82 0 0 1 .85.85v1.9a.82.82 0 0 1-.85.85h-2.5Zm0-5.4a.82.82 0 0 1-.61-.24.83.83 0 0 1-.24-.61v-1.9c0-.24.08-.44.24-.6a.82.82 0 0 1 .61-.25h2.5a.82.82 0 0 1 .85.85v1.9a.82.82 0 0 1-.85.85h-2.5Z" fill="#1C1B1F"></path></g></svg><svg viewBox="0 0 28 28" fill="none" id="view_module"><mask id="view_module_0" style="mask-type:alpha" maskUnits="userSpaceOnUse" x="0" y="0" width="28" height="28"><path fill="#D9D9D9" d="M0 0h28v28h-28z"></path></mask><g mask="url(#view_module_0)"><path d="M20.3 13.3c-.64 0-1.15-.19-1.53-.57a2.07 2.07 0 0 1-.57-1.53v-2.1c0-.64.19-1.15.57-1.53.38-.38.89-.57 1.53-.57h1.4c.64 0 1.15.19 1.53.57.38.38.57.89.57 1.53v2.1c0 .64-.19 1.15-.57 1.53-.38.38-.89.57-1.53.57h-1.4Zm-7 0c-.64 0-1.15-.19-1.53-.57a2.07 2.07 0 0 1-.57-1.53v-2.1c0-.64.19-1.15.57-1.53.38-.38.89-.57 1.53-.57h1.4c.64 0 1.15.19 1.53.57.38.38.57.89.57 1.53v2.1c0 .64-.19 1.15-.57 1.53-.38.38-.89.57-1.53.57h-1.4Zm-7 0c-.64 0-1.15-.19-1.53-.57a2.07 2.07 0 0 1-.57-1.53v-2.1c0-.64.19-1.15.57-1.53.38-.38.89-.57 1.53-.57h1.4c.64 0 1.15.19 1.53.57.38.38.57.89.57 1.53v2.1c0 .64-.19 1.15-.57 1.53-.38.38-.89.57-1.53.57h-1.4Zm0 7.7c-.64 0-1.15-.19-1.53-.57a2.07 2.07 0 0 1-.57-1.53v-2.1c0-.64.19-1.15.57-1.53.38-.38.89-.57 1.53-.57h1.4c.64 0 1.15.19 1.53.57.38.38.57.89.57 1.53v2.1c0 .64-.19 1.15-.57 1.53-.38.38-.89.57-1.53.57h-1.4Zm7 0c-.64 0-1.15-.19-1.53-.57a2.07 2.07 0 0 1-.57-1.53v-2.1c0-.64.19-1.15.57-1.53.38-.38.89-.57 1.53-.57h1.4c.64 0 1.15.19 1.53.57.38.38.57.89.57 1.53v2.1c0 .64-.19 1.15-.57 1.53-.38.38-.89.57-1.53.57h-1.4Zm7 0c-.64 0-1.15-.19-1.53-.57a2.07 2.07 0 0 1-.57-1.53v-2.1c0-.64.19-1.15.57-1.53.38-.38.89-.57 1.53-.57h1.4c.64 0 1.15.19 1.53.57.38.38.57.89.57 1.53v2.1c0 .64-.19 1.15-.57 1.53-.38.38-.89.57-1.53.57h-1.4Z" fill="#1C1B1F"></path></g></svg><svg viewBox="0 0 24 24" fill="none" id="zoom_in"><mask id="zoom_in_0" style="mask-type:alpha" maskUnits="userSpaceOnUse" x="0" y="0" width="24" height="24"><path fill="#D9D9D9" d="M0 0h24v24h-24z"></path></mask><g mask="url(#zoom_in_0)"><path d="M8.7 10.5h-.9a.88.88 0 0 1-.64-.26.87.87 0 0 1-.26-.64c0-.25.09-.47.26-.64a.88.88 0 0 1 .64-.26h.9v-.9c0-.25.1-.47.27-.64a.87.87 0 0 1 .64-.26.88.88 0 0 1 .89.9v.9h.9a.88.88 0 0 1 .9.9c0 .25-.09.46-.26.63a.87.87 0 0 1-.64.26h-.9v.9c0 .26-.09.48-.26.65a.87.87 0 0 1-.64.26.86.86 0 0 1-.63-.26.87.87 0 0 1-.26-.64v-.9Zm.9 5.1a5.79 5.79 0 0 1-4.25-1.75 5.79 5.79 0 0 1-1.75-4.25c0-1.67.58-3.08 1.75-4.25a5.79 5.79 0 0 1 4.25-1.75c1.67 0 3.08.58 4.25 1.75a5.79 5.79 0 0 1 1.75 4.25 5.74 5.74 0 0 1-1.17 3.55l5.35 5.35a.86.86 0 0 1 0 1.25.87.87 0 0 1-1.28 0l-5.35-5.32a5.74 5.74 0 0 1-3.55 1.17Zm0-1.8c1.17 0 2.16-.4 2.98-1.22a4.05 4.05 0 0 0 1.22-2.98 4 4 0 0 0-1.22-2.97 4.05 4.05 0 0 0-2.98-1.23c-1.17 0-2.16.4-2.97 1.23a4.05 4.05 0 0 0-1.23 2.97c0 1.17.4 2.16 1.23 2.98.81.81 1.8 1.22 2.97 1.22Z" fill="#1C1B1F"></path></g></svg><svg viewBox="0 0 24 24" fill="none" id="zoom_out"><mask id="zoom_out_0" style="mask-type:alpha" maskUnits="userSpaceOnUse" x="0" y="0" width="24" height="24"><path fill="#D9D9D9" d="M0 0h24v24h-24z"></path></mask><g mask="url(#zoom_out_0)"><path d="M8.1 10.5a.87.87 0 0 1-.64-.26.86.86 0 0 1-.26-.63.9.9 0 0 1 .26-.65.86.86 0 0 1 .64-.26h3c.26 0 .47.09.64.26.17.17.26.38.26.63a.9.9 0 0 1-.26.65.86.86 0 0 1-.64.26h-3Zm1.5 5.1a5.79 5.79 0 0 1-4.25-1.75 5.79 5.79 0 0 1-1.75-4.25c0-1.67.58-3.08 1.75-4.25a5.79 5.79 0 0 1 4.25-1.75c1.67 0 3.08.58 4.25 1.75a5.79 5.79 0 0 1 1.75 4.25 5.74 5.74 0 0 1-1.17 3.55l5.35 5.35a.86.86 0 0 1 0 1.25.87.87 0 0 1-1.28 0l-5.35-5.32a5.74 5.74 0 0 1-3.55 1.17Zm0-1.8c1.17 0 2.16-.4 2.98-1.22a4.05 4.05 0 0 0 1.22-2.98 4 4 0 0 0-1.22-2.97 4.05 4.05 0 0 0-2.98-1.23c-1.17 0-2.16.4-2.97 1.23a4.05 4.05 0 0 0-1.23 2.97c0 1.17.4 2.16 1.23 2.98.81.81 1.8 1.22 2.97 1.22Z" fill="#1C1B1F"></path></g></svg></svg>