<svg viewBox="0 0 30 30" fill="none" xmlns="http://www.w3.org/2000/svg"><mask id="a" style="mask-type:alpha" maskUnits="userSpaceOnUse" x="0" y="0" width="30" height="30"><path fill="#D9D9D9" d="M0 0h30v30h-30z"/></mask><g mask="url(#a)"><path d="M7.62 21.33a12.94 12.94 0 0 1 14.76 0 8.87 8.87 0 0 0 1.77-2.9c.4-1.08.6-2.22.6-3.43 0-2.7-.95-5-2.85-6.9a9.4 9.4 0 0 0-6.9-2.85c-2.71 0-5.01.95-6.9 2.85a9.4 9.4 0 0 0-2.85 6.9c0 1.2.2 2.35.6 3.43.4 1.08 1 2.05 1.77 2.9Zm7.38-4.4c-1.16 0-2.15-.4-2.97-1.21a4.04 4.04 0 0 1-1.22-2.97c0-1.16.41-2.15 1.22-2.97a4.04 4.04 0 0 1 2.97-1.22c1.16 0 2.15.41 2.97 1.22.81.82 1.22 1.8 1.22 2.97 0 1.16-.41 2.15-1.22 2.97a4.04 4.04 0 0 1-2.97 1.22Zm0 9.44a11.18 11.18 0 0 1-8.05-3.32 11.4 11.4 0 0 1 3.63-18.54 11.2 11.2 0 0 1 4.43-.88c1.58 0 3.06.29 4.43.88a11.45 11.45 0 0 1 6.05 6.06c.6 1.38.88 2.85.88 4.42a11.18 11.18 0 0 1-3.32 8.06 11.42 11.42 0 0 1-8.04 3.32Z" fill="#1C1B1F"/></g></svg>