<svg viewBox="0 0 30 30" fill="none" xmlns="http://www.w3.org/2000/svg"><mask id="a" style="mask-type:alpha" maskUnits="userSpaceOnUse" x="0" y="0" width="30" height="30"><path fill="#D9D9D9" d="M0 0h30v30h-30z"/></mask><g mask="url(#a)"><path d="M7.4 21.1a12.5 12.5 0 0 1 3.62-1.77 13.76 13.76 0 0 1 7.96 0c1.29.38 2.49.97 3.61 1.76a8.62 8.62 0 0 0 1.63-2.84c.35-1.04.53-2.13.53-3.25 0-2.7-.95-5-2.85-6.9a9.4 9.4 0 0 0-6.9-2.85c-2.71 0-5.01.95-6.9 2.85a9.4 9.4 0 0 0-2.85 6.9c0 1.13.18 2.2.53 3.25.36 1.04.9 1.99 1.63 2.84Zm7.6-3.85a4.34 4.34 0 0 1-3.19-1.31 4.34 4.34 0 0 1-1.31-3.19c0-1.25.44-2.31 1.31-3.19a4.34 4.34 0 0 1 3.19-1.31c1.25 0 2.31.44 3.19 1.31a4.34 4.34 0 0 1 1.31 3.19c0 1.25-.44 2.31-1.31 3.19a4.34 4.34 0 0 1-3.19 1.31Zm0 9.75a12.1 12.1 0 0 1-11.07-7.34 11.73 11.73 0 0 1-.93-4.67c0-1.66.31-3.21.94-4.66a12.14 12.14 0 0 1 6.4-6.4c1.46-.62 3.02-.93 4.67-.93 1.66 0 3.21.31 4.66.94a12.15 12.15 0 0 1 6.4 6.4c.62 1.45.93 3 .93 4.65a12.1 12.1 0 0 1-7.34 11.07c-1.45.63-3 .94-4.65.94Zm0-2.25a9.55 9.55 0 0 0 5.94-2.03 11.24 11.24 0 0 0-9.05-1.3 9.8 9.8 0 0 0-2.83 1.3 9.55 9.55 0 0 0 5.94 2.03Zm0-9.75c.63 0 1.16-.22 1.6-.66.43-.43.65-.96.65-1.59 0-.63-.22-1.16-.66-1.6a2.17 2.17 0 0 0-1.59-.65c-.63 0-1.16.22-1.6.66-.43.43-.65.96-.65 1.59 0 .63.22 1.16.66 1.6.43.43.96.65 1.59.65Z" fill="#1C1B1F"/></g></svg>