<svg viewBox="0 0 24 24" fill="none" xmlns="http://www.w3.org/2000/svg"><mask id="a" style="mask-type:alpha" maskUnits="userSpaceOnUse" x="0" y="0" width="24" height="24"><path fill="#D9D9D9" d="M0 0h24v24h-24z"/></mask><g mask="url(#a)"><path d="m10.87 14.12-1.76-1.77a.8.8 0 0 0-.6-.23.9.9 0 0 0-.6.25.84.84 0 0 0-.24.6c0 .22.08.42.24.59l2.26 2.24a.97.97 0 0 0 1.4 0l4.4-4.4a.83.83 0 0 0 0-1.2.83.83 0 0 0-.59-.24.84.84 0 0 0-.6.24l-3.91 3.92Zm1.1 8.18a9.43 9.43 0 0 1-8.6-5.68 9.1 9.1 0 0 1-.72-3.64c0-1.3.24-2.5.73-3.63a9.53 9.53 0 0 1 4.97-4.98 9.03 9.03 0 0 1 3.63-.74 9.49 9.49 0 0 1 8.6 5.71c.5 1.14.74 2.35.74 3.64a9.38 9.38 0 0 1-9.34 9.32Zm-10.59-15.6a.74.74 0 0 1-.23-.58c0-.22.1-.42.27-.6l3.2-3.1a.81.81 0 0 1 .59-.2.8.8 0 0 1 .57.24c.17.17.26.37.25.59 0 .21-.1.4-.28.58l-3.2 3.1a.8.8 0 0 1-.6.23.8.8 0 0 1-.57-.26Zm21.19 0a.8.8 0 0 1-.58.26.8.8 0 0 1-.6-.23l-3.2-3.1a.77.77 0 0 1-.02-1.17.8.8 0 0 1 .57-.25c.23 0 .43.07.6.23l3.2 3.1a.8.8 0 0 1 .27.57.78.78 0 0 1-.24.6Zm-10.6 13.62a7.1 7.1 0 0 0 5.21-2.14 7.09 7.09 0 0 0 2.14-5.2 7.1 7.1 0 0 0-2.14-5.21 7.09 7.09 0 0 0-5.2-2.14 7.1 7.1 0 0 0-5.21 2.14 7.09 7.09 0 0 0-2.14 5.2 7.1 7.1 0 0 0 2.14 5.21 7.09 7.09 0 0 0 5.2 2.14Z" fill="#1C1B1F"/></g></svg>