<svg viewBox="0 0 40 40" fill="none" xmlns="http://www.w3.org/2000/svg"><mask id="a" style="mask-type:alpha" maskUnits="userSpaceOnUse" x="0" y="0" width="40" height="40"><path fill="#D9D9D9" d="M0 0h40v40h-40z"/></mask><g mask="url(#a)"><path d="m18.16 13.03-8.26 8.27a1.82 1.82 0 0 1-2.61.01c-.37-.37-.55-.8-.54-1.3 0-.51.18-.95.55-1.32l11.39-11.39c.19-.18.4-.32.62-.42a1.78 1.78 0 0 1 2 .42l11.41 11.41a1.83 1.83 0 0 1-1.3 3.15c-.5 0-.94-.18-1.3-.55l-8.28-8.28v19.13c0 .52-.18.95-.53 1.3-.36.36-.8.53-1.31.53-.52 0-.95-.17-1.3-.53a1.78 1.78 0 0 1-.54-1.3v-19.13Z" fill="#1C1B1F"/></g></svg>