<svg viewBox="0 0 25 25" fill="none" xmlns="http://www.w3.org/2000/svg"><mask id="a" style="mask-type:alpha" maskUnits="userSpaceOnUse" x="0" y="0" width="25" height="25"><path fill="#D9D9D9" d="M0 0h25v25h-25z"/></mask><g mask="url(#a)"><path d="M5.2 22.92a2 2 0 0 1-1.46-.62 2 2 0 0 1-.62-1.47v-12.5a2 2 0 0 1 .62-1.47 2 2 0 0 1 1.47-.61h2.08c0-1.44.5-2.67 1.53-3.69a5.02 5.02 0 0 1 3.68-1.52c1.44 0 2.67.5 3.68 1.52a5.02 5.02 0 0 1 1.53 3.69h2.08a2 2 0 0 1 1.47.61 2 2 0 0 1 .61 1.47v12.5a2 2 0 0 1-.6 1.47 2 2 0 0 1-1.48.62h-14.58Zm0-2.09h14.6v-12.5h-14.6v12.5Zm4.17-14.58h6.26c0-.87-.3-1.6-.92-2.21a2.99 2.99 0 0 0-2.21-.92c-.87 0-1.6.3-2.21.92-.61.6-.91 1.34-.91 2.21Zm3.1 8.33c1.29 0 2.45-.42 3.5-1.27 1.04-.85 1.55-1.8 1.53-2.87 0-.3-.1-.54-.29-.75a.95.95 0 0 0-.73-.32 1 1 0 0 0-.65.24c-.19.16-.33.39-.41.7a3.06 3.06 0 0 1-4.78 1.59c-.57-.4-.94-.93-1.1-1.59a1.37 1.37 0 0 0-.4-.71.93.93 0 0 0-.62-.23c-.3 0-.55.1-.75.32-.2.2-.3.46-.3.75 0 1.06.52 2.02 1.54 2.87a5.28 5.28 0 0 0 3.46 1.27Z" fill="#1C1B1F"/></g></svg>