<svg viewBox="0 0 24 24" fill="none" xmlns="http://www.w3.org/2000/svg"><mask id="a" style="mask-type:alpha" maskUnits="userSpaceOnUse" x="0" y="0" width="24" height="24"><path fill="#D9D9D9" d="M0 0h24v24h-24z"/></mask><g mask="url(#a)"><path d="m12 13.71-5.99 5.99c-.22.22-.5.34-.85.34s-.64-.12-.86-.34c-.22-.22-.34-.5-.34-.86 0-.34.12-.63.34-.85l5.99-5.99-5.99-5.99c-.22-.22-.34-.5-.34-.85s.12-.64.34-.86c.22-.22.5-.34.86-.34.34 0 .63.12.85.34l5.99 5.99 5.99-5.99c.22-.22.5-.34.85-.34s.64.12.86.34c.22.22.34.5.34.86 0 .34-.12.63-.34.85l-5.99 5.99 5.99 5.99c.22.22.34.5.34.85s-.12.64-.34.86c-.22.22-.5.34-.86.34-.34 0-.63-.12-.85-.34l-5.99-5.99Z" fill="#1C1B1F"/></g></svg>