<svg viewBox="0 0 25 25" fill="none" xmlns="http://www.w3.org/2000/svg"><mask id="a" style="mask-type:alpha" maskUnits="userSpaceOnUse" x="0" y="0" width="25" height="25"><path fill="#D9D9D9" d="M0 0h25v25h-25z"/></mask><g mask="url(#a)"><path d="m8.01 12.47 4.45 4.44c.2.2.3.44.3.72a1.04 1.04 0 0 1-1.03 1.03.98.98 0 0 1-.72-.3l-5.15-5.15c-.1-.1-.19-.22-.24-.35a.97.97 0 0 1 0-.78.96.96 0 0 1 .24-.34l5.15-5.15a1.02 1.02 0 0 1 1.45 0 1.01 1.01 0 0 1 .01 1.45l-4.46 4.43Zm6.74 0 4.43 4.44c.2.2.3.44.3.72a1.04 1.04 0 0 1-1.03 1.03.98.98 0 0 1-.71-.3l-5.16-5.15c-.1-.1-.19-.22-.24-.35a.97.97 0 0 1 0-.78.96.96 0 0 1 .24-.34l5.16-5.15c.2-.2.44-.3.72-.3.28 0 .52.1.72.3a1.01 1.01 0 0 1 .01 1.45l-4.44 4.43Z" fill="#1C1B1F"/></g></svg>