<svg viewBox="0 0 25 25" fill="none" xmlns="http://www.w3.org/2000/svg"><mask id="a" style="mask-type:alpha" maskUnits="userSpaceOnUse" x="0" y="0" width="25" height="25"><path fill="#D9D9D9" d="M0 0h25v25h-25z"/></mask><g mask="url(#a)"><path d="M12.49 21.68c-.26 0-.51-.05-.76-.13a1.74 1.74 0 0 1-.66-.43l-1.39-1.3c-2.14-1.96-4-3.87-5.59-5.71a8.86 8.86 0 0 1-2.37-5.85 5.72 5.72 0 0 1 5.82-5.88c.87 0 1.74.2 2.6.6a6.3 6.3 0 0 1 2.35 1.99 7.64 7.64 0 0 1 2.4-2c.8-.4 1.65-.6 2.54-.6 1.67 0 3.06.57 4.19 1.7a5.7 5.7 0 0 1 1.68 4.19c0 2.05-.8 4-2.4 5.85a74.05 74.05 0 0 1-5.6 5.73l-1.4 1.29c-.19.2-.4.33-.65.42-.25.09-.5.13-.76.13Zm-.76-14.4a5.67 5.67 0 0 0-1.8-2.03 4.13 4.13 0 0 0-2.39-.8c-1.1 0-2 .35-2.7 1.06a3.76 3.76 0 0 0-1.06 2.76 6 6 0 0 0 1 3.1 21.22 21.22 0 0 0 2.37 3.17 37.05 37.05 0 0 0 2.87 2.87c1 .88 1.82 1.62 2.47 2.22l2.46-2.23c1-.9 1.96-1.85 2.88-2.88a22.42 22.42 0 0 0 2.4-3.17 5.9 5.9 0 0 0 1-3.1 3.7 3.7 0 0 0-1.07-2.74 3.7 3.7 0 0 0-2.72-1.07c-.84 0-1.65.27-2.41.8a5.88 5.88 0 0 0-1.83 2.03.86.86 0 0 1-.33.35.85.85 0 0 1-.42.1.83.83 0 0 1-.41-.1.76.76 0 0 1-.3-.35Z" fill="#1C1B1F"/></g></svg>