<svg viewBox="0 0 25 25" fill="none" xmlns="http://www.w3.org/2000/svg"><mask id="a" style="mask-type:alpha" maskUnits="userSpaceOnUse" x="0" y="0" width="25" height="25"><path fill="#D9D9D9" d="M0 0h25v25h-25z"/></mask><g mask="url(#a)"><path d="M12.49 21.68a2.2 2.2 0 0 1-.76-.14 1.76 1.76 0 0 1-.65-.41l-1.4-1.3a70.4 70.4 0 0 1-5.59-5.72 8.86 8.86 0 0 1-2.37-5.85 5.72 5.72 0 0 1 5.82-5.88c.87 0 1.74.2 2.6.6a6.3 6.3 0 0 1 2.35 1.99 7.64 7.64 0 0 1 2.4-2c.8-.4 1.65-.6 2.54-.6 1.67 0 3.06.57 4.18 1.7a5.69 5.69 0 0 1 1.69 4.19c0 2.05-.8 4-2.4 5.85a74.05 74.05 0 0 1-5.6 5.73l-1.4 1.29c-.18.19-.4.33-.65.41a2 2 0 0 1-.76.14Z" fill="#1C1B1F"/></g></svg>