<svg viewBox="0 0 30 30" fill="none" xmlns="http://www.w3.org/2000/svg"><mask id="a" style="mask-type:alpha" maskUnits="userSpaceOnUse" x="0" y="0" width="30" height="30"><path fill="#D9D9D9" d="M0 0h30v30h-30z"/></mask><g mask="url(#a)"><path d="M15.8 24.87a.79.79 0 0 1-.81-.8.8.8 0 0 1 .81-.82h7.07c.1 0 .18-.04.26-.12a.37.37 0 0 0 .12-.26v-15.74c0-.1-.04-.18-.12-.26a.37.37 0 0 0-.26-.12h-7.07a.79.79 0 0 1-.81-.8.8.8 0 0 1 .81-.83h7.07c.56 0 1.03.2 1.42.59.4.39.58.86.58 1.42v15.74c0 .56-.19 1.03-.58 1.42-.39.4-.86.58-1.42.58h-7.07Zm-1.04-9.06h-8.82a.79.79 0 0 1-.82-.8.8.8 0 0 1 .82-.82h8.82l-1.81-1.81a.84.84 0 0 1-.27-.6c0-.21.09-.4.27-.58a.8.8 0 0 1 .58-.25c.2 0 .4.1.57.27l3.08 3.08c.2.2.31.43.31.7 0 .26-.1.5-.3.7l-3.1 3.08a.75.75 0 0 1-.55.25c-.2 0-.4-.1-.58-.27a.82.82 0 0 1-.26-.57c0-.21.09-.4.27-.59l1.79-1.79Z" fill="#1C1B1F"/></g></svg>