<svg viewBox="0 0 30 30" fill="none" xmlns="http://www.w3.org/2000/svg"><mask id="a" style="mask-type:alpha" maskUnits="userSpaceOnUse" x="0" y="0" width="30" height="30"><path fill="#D9D9D9" d="M0 0h30v30h-30z"/></mask><g mask="url(#a)"><path d="M6.75 25.5c-.62 0-1.15-.22-1.59-.66a2.17 2.17 0 0 1-.66-1.59v-16.5c0-.62.22-1.15.66-1.59.44-.44.97-.66 1.59-.66h7.13a1.09 1.09 0 0 1 1.12 1.12c0 .32-.1.58-.32.8a1.1 1.1 0 0 1-.8.33h-7.13v16.5h7.13a1.09 1.09 0 0 1 1.12 1.12c0 .32-.1.58-.32.8a1.1 1.1 0 0 1-.8.33h-7.13Zm14.44-9.38h-8.07c-.31 0-.58-.1-.8-.32a1.08 1.08 0 0 1-.32-.8 1.09 1.09 0 0 1 1.12-1.12h8.07l-1.75-1.76a1.1 1.1 0 0 1 0-1.6 1.1 1.1 0 0 1 1.6.01l3.68 3.69c.23.22.34.48.34.77 0 .3-.11.56-.34.8l-3.69 3.68c-.23.23-.49.34-.78.33a1.2 1.2 0 0 1-.8-.36 1.12 1.12 0 0 1 .02-1.6l1.72-1.71Z" fill="#1C1B1F"/></g></svg>