<svg viewBox="0 0 48 48" fill="none" xmlns="http://www.w3.org/2000/svg"><mask id="a" style="mask-type:alpha" maskUnits="userSpaceOnUse" x="0" y="0" width="48" height="48"><path fill="#D9D9D9" d="M0 0h48v48h-48z"/></mask><g mask="url(#a)"><path d="m26.5 23.95-8.85-8.85c-.3-.3-.44-.65-.43-1.05.02-.4.18-.75.48-1.05.3-.3.66-.45 1.07-.45.42 0 .78.15 1.08.45l9.9 9.9c.17.17.28.33.35.5.07.17.1.35.1.55 0 .2-.03.38-.1.55-.07.17-.18.33-.35.5l-9.95 9.95c-.3.3-.65.44-1.05.42a1.5 1.5 0 0 1-1.05-.47c-.3-.3-.45-.66-.45-1.08 0-.41.15-.77.45-1.07l8.8-8.8Z" fill="#1C1B1F"/></g></svg>