<svg viewBox="0 0 35 35" fill="none" xmlns="http://www.w3.org/2000/svg"><mask id="a" style="mask-type:alpha" maskUnits="userSpaceOnUse" x="0" y="0" width="35" height="35"><path fill="#D9D9D9" d="M0 0h35v35h-35z"/></mask><g mask="url(#a)"><path d="M9.84 30.86c-.63 0-1.16-.23-1.6-.67a2.2 2.2 0 0 1-.65-1.6c0-.63.22-1.17.66-1.6a2.2 2.2 0 0 1 1.6-.66c.64 0 1.17.22 1.6.67.44.44.66.97.66 1.6 0 .63-.22 1.17-.66 1.6a2.2 2.2 0 0 1-1.6.66Zm15.3 0c-.63 0-1.16-.23-1.6-.67a2.2 2.2 0 0 1-.65-1.6c0-.63.22-1.17.66-1.6a2.2 2.2 0 0 1 1.6-.66c.64 0 1.17.22 1.6.67.44.44.66.97.66 1.6 0 .63-.22 1.17-.66 1.6a2.2 2.2 0 0 1-1.6.66Zm-16.11-21.6 3.22 7.45h10.7a.4.4 0 0 0 .23-.06c.07-.05.12-.1.17-.18l2.9-6.82c.05-.1.05-.2 0-.27-.04-.08-.12-.12-.23-.12h-17Zm-.8-1.9h19.52c.38 0 .66.14.83.42.17.28.19.57.06.88l-3.56 8.53c-.18.43-.45.77-.82 1.03-.37.26-.8.39-1.26.39h-11.44l-1.62 2.79a.32.32 0 0 0 0 .36c.07.13.17.2.31.2h16.21a.92.92 0 0 1 .95.94.93.93 0 0 1-.95.96h-16.17c-.93 0-1.6-.38-2.03-1.14a2.11 2.11 0 0 1 .04-2.27l2-3.45-4.83-11.24h-2.04a.92.92 0 0 1-.95-.94.93.93 0 0 1 .95-.96h2.52c.25 0 .46.07.64.2s.32.3.44.52l1.2 2.78Z" fill="#1C1B1F"/></g></svg>