<svg viewBox="0 0 25 25" fill="none" xmlns="http://www.w3.org/2000/svg"><mask id="a" style="mask-type:alpha" maskUnits="userSpaceOnUse" x="0" y="0" width="25" height="25"><path fill="#D9D9D9" d="M0 0h25v25h-25z"/></mask><g mask="url(#a)"><path d="M6.25 22.92a2 2 0 0 1-1.47-.62 2 2 0 0 1-.61-1.47v-12.5a2 2 0 0 1 .6-1.47 2 2 0 0 1 1.48-.61h2.08c0-1.15.41-2.13 1.23-2.94a4.01 4.01 0 0 1 2.94-1.23c1.15 0 2.13.41 2.94 1.23a4 4 0 0 1 1.23 2.94h2.08a2 2 0 0 1 1.47.61c.4.41.61.9.61 1.47v12.5a2 2 0 0 1-.6 1.47 2 2 0 0 1-1.48.62h-12.5Zm0-2.09h12.5v-12.5h-2.08v2.09a1 1 0 0 1-.3.74 1 1 0 0 1-.74.3 1 1 0 0 1-.75-.3 1 1 0 0 1-.3-.74v-2.09h-4.16v2.09a1 1 0 0 1-.3.74 1 1 0 0 1-.74.3 1 1 0 0 1-.75-.3 1 1 0 0 1-.3-.74v-2.09h-2.08v12.5Zm4.17-14.58h4.16a2 2 0 0 0-.6-1.47 2 2 0 0 0-1.48-.61 2 2 0 0 0-1.47.6 2 2 0 0 0-.61 1.48Z" fill="#1C1B1F"/></g></svg>