<svg viewBox="0 0 35 35" fill="none" xmlns="http://www.w3.org/2000/svg"><mask id="a" style="mask-type:alpha" maskUnits="userSpaceOnUse" x="0" y="0" width="35" height="35"><path fill="#D9D9D9" d="M0 0h35v35h-35z"/></mask><g mask="url(#a)"><path d="M9.62 31.5c-.73 0-1.34-.26-1.85-.77a2.55 2.55 0 0 1-.77-1.86c0-.73.26-1.34.77-1.85a2.55 2.55 0 0 1 1.86-.77c.73 0 1.34.26 1.85.77.51.52.77 1.14.77 1.86 0 .73-.26 1.34-.77 1.85-.52.51-1.14.77-1.86.77Zm15.75 0c-.73 0-1.34-.26-1.85-.77a2.55 2.55 0 0 1-.77-1.86c0-.73.26-1.34.77-1.85a2.55 2.55 0 0 1 1.86-.77c.73 0 1.34.26 1.85.77.51.52.77 1.14.77 1.86 0 .73-.26 1.34-.77 1.85-.52.51-1.14.77-1.86.77Zm-16.15-21.88 3.03 7h10.97l3-7h-17Zm-1.13-2.62h20.79c.34 0 .58.13.74.4a.9.9 0 0 1 .06.84l-4.06 9.4a2.63 2.63 0 0 1-2.4 1.61h-11.66l-1.53 2.63h16.66c.37 0 .68.12.93.37s.38.56.38.93a1.3 1.3 0 0 1-1.31 1.32h-16.63a2.48 2.48 0 0 1-2.31-1.32c-.5-.88-.5-1.75.02-2.62l1.9-3.28-4.78-11.16h-1.83c-.37 0-.68-.12-.93-.37a1.26 1.26 0 0 1-.38-.93 1.3 1.3 0 0 1 1.31-1.32h2.66c.27 0 .5.07.71.22.21.14.38.34.5.58l1.16 2.7Z" fill="#1C1B1F"/></g></svg>