<svg viewBox="0 0 28 28" fill="none" xmlns="http://www.w3.org/2000/svg"><mask id="a" style="mask-type:alpha" maskUnits="userSpaceOnUse" x="0" y="0" width="28" height="28"><path fill="#D9D9D9" d="M0 0h28v28h-28z"/></mask><g mask="url(#a)"><path d="M20.3 13.3c-.64 0-1.15-.19-1.53-.57a2.07 2.07 0 0 1-.57-1.53v-2.1c0-.64.19-1.15.57-1.53.38-.38.89-.57 1.53-.57h1.4c.64 0 1.15.19 1.53.57.38.38.57.89.57 1.53v2.1c0 .64-.19 1.15-.57 1.53-.38.38-.89.57-1.53.57h-1.4Zm-7 0c-.64 0-1.15-.19-1.53-.57a2.07 2.07 0 0 1-.57-1.53v-2.1c0-.64.19-1.15.57-1.53.38-.38.89-.57 1.53-.57h1.4c.64 0 1.15.19 1.53.57.38.38.57.89.57 1.53v2.1c0 .64-.19 1.15-.57 1.53-.38.38-.89.57-1.53.57h-1.4Zm-7 0c-.64 0-1.15-.19-1.53-.57a2.07 2.07 0 0 1-.57-1.53v-2.1c0-.64.19-1.15.57-1.53.38-.38.89-.57 1.53-.57h1.4c.64 0 1.15.19 1.53.57.38.38.57.89.57 1.53v2.1c0 .64-.19 1.15-.57 1.53-.38.38-.89.57-1.53.57h-1.4Zm0 7.7c-.64 0-1.15-.19-1.53-.57a2.07 2.07 0 0 1-.57-1.53v-2.1c0-.64.19-1.15.57-1.53.38-.38.89-.57 1.53-.57h1.4c.64 0 1.15.19 1.53.57.38.38.57.89.57 1.53v2.1c0 .64-.19 1.15-.57 1.53-.38.38-.89.57-1.53.57h-1.4Zm7 0c-.64 0-1.15-.19-1.53-.57a2.07 2.07 0 0 1-.57-1.53v-2.1c0-.64.19-1.15.57-1.53.38-.38.89-.57 1.53-.57h1.4c.64 0 1.15.19 1.53.57.38.38.57.89.57 1.53v2.1c0 .64-.19 1.15-.57 1.53-.38.38-.89.57-1.53.57h-1.4Zm7 0c-.64 0-1.15-.19-1.53-.57a2.07 2.07 0 0 1-.57-1.53v-2.1c0-.64.19-1.15.57-1.53.38-.38.89-.57 1.53-.57h1.4c.64 0 1.15.19 1.53.57.38.38.57.89.57 1.53v2.1c0 .64-.19 1.15-.57 1.53-.38.38-.89.57-1.53.57h-1.4Z" fill="#1C1B1F"/></g></svg>