<svg viewBox="0 0 24 24" fill="none" xmlns="http://www.w3.org/2000/svg"><mask id="a" style="mask-type:alpha" maskUnits="userSpaceOnUse" x="0" y="0" width="24" height="24"><path fill="#D9D9D9" d="M0 0h24v24h-24z"/></mask><g mask="url(#a)"><path d="M3.25 8.4a.82.82 0 0 1-.61-.24.83.83 0 0 1-.24-.61v-1.9c0-.24.08-.44.24-.6a.82.82 0 0 1 .61-.25h2.5a.82.82 0 0 1 .85.85v1.9a.82.82 0 0 1-.85.85h-2.5Zm5.97 0a.79.79 0 0 1-.58-.24.84.84 0 0 1-.24-.61v-1.9c0-.24.08-.44.24-.6a.79.79 0 0 1 .58-.25h11.53a.82.82 0 0 1 .85.85v1.9a.82.82 0 0 1-.85.85h-11.53Zm0 5.4a.79.79 0 0 1-.58-.24.84.84 0 0 1-.24-.61v-1.9c0-.24.08-.44.24-.6a.79.79 0 0 1 .58-.25h11.53a.82.82 0 0 1 .85.85v1.9a.82.82 0 0 1-.85.85h-11.53Zm0 5.4a.79.79 0 0 1-.58-.24.84.84 0 0 1-.24-.61v-1.9c0-.24.08-.44.24-.6a.79.79 0 0 1 .58-.25h11.53a.82.82 0 0 1 .85.85v1.9a.82.82 0 0 1-.85.85h-11.53Zm-5.97 0a.82.82 0 0 1-.61-.24.83.83 0 0 1-.24-.61v-1.9c0-.24.08-.44.24-.6a.82.82 0 0 1 .61-.25h2.5a.82.82 0 0 1 .85.85v1.9a.82.82 0 0 1-.85.85h-2.5Zm0-5.4a.82.82 0 0 1-.61-.24.83.83 0 0 1-.24-.61v-1.9c0-.24.08-.44.24-.6a.82.82 0 0 1 .61-.25h2.5a.82.82 0 0 1 .85.85v1.9a.82.82 0 0 1-.85.85h-2.5Z" fill="#1C1B1F"/></g></svg>