<svg viewBox="0 0 24 24" fill="none" xmlns="http://www.w3.org/2000/svg"><mask id="a" style="mask-type:alpha" maskUnits="userSpaceOnUse" x="0" y="0" width="24" height="24"><path fill="#D9D9D9" d="M0 0h24v24h-24z"/></mask><g mask="url(#a)"><path d="M8.1 10.5a.87.87 0 0 1-.64-.26.86.86 0 0 1-.26-.63.9.9 0 0 1 .26-.65.86.86 0 0 1 .64-.26h3c.26 0 .47.09.64.26.17.17.26.38.26.63a.9.9 0 0 1-.26.65.86.86 0 0 1-.64.26h-3Zm1.5 5.1a5.79 5.79 0 0 1-4.25-1.75 5.79 5.79 0 0 1-1.75-4.25c0-1.67.58-3.08 1.75-4.25a5.79 5.79 0 0 1 4.25-1.75c1.67 0 3.08.58 4.25 1.75a5.79 5.79 0 0 1 1.75 4.25 5.74 5.74 0 0 1-1.17 3.55l5.35 5.35a.86.86 0 0 1 0 1.25.87.87 0 0 1-1.28 0l-5.35-5.32a5.74 5.74 0 0 1-3.55 1.17Zm0-1.8c1.17 0 2.16-.4 2.98-1.22a4.05 4.05 0 0 0 1.22-2.98 4 4 0 0 0-1.22-2.97 4.05 4.05 0 0 0-2.98-1.23c-1.17 0-2.16.4-2.97 1.23a4.05 4.05 0 0 0-1.23 2.97c0 1.17.4 2.16 1.23 2.98.81.81 1.8 1.22 2.97 1.22Z" fill="#1C1B1F"/></g></svg>